<svg width="2280" height="540" viewBox="0 0 2280 540" fill="none" xmlns="http://www.w3.org/2000/svg">
<path d="M1523.24 118.444L1654.43 118.38C1675.24 118.375 1716.57 116.61 1734.7 121.107C1748.04 138.883 1739.98 212.127 1740.27 228.447C1740.69 252.494 1685.75 234.454 1683.93 244.876C1673.86 302.467 1700.78 301.65 1622.69 301.634L1538.5 301.556C1531.78 301.46 1524.82 301.093 1518.12 301.565C1513.45 301.894 1507.7 302.833 1504.86 306.957C1494.25 322.376 1509.16 403.041 1497.04 416.439C1493.62 420.225 1486.34 421.155 1481.55 421.487C1472.18 422.138 1450.95 423.795 1443.62 417.144C1439.2 413.125 1439.03 407.204 1438.67 401.632C1436.58 368.941 1438.54 329.575 1438.47 296.222L1438.35 233.049C1438.32 219.386 1437.6 203.504 1439.64 190.298C1443.07 168.126 1486.55 185.256 1495.43 175.634C1503.32 167.093 1492.87 133.262 1503.18 123.234C1508.52 118.035 1516.24 118.711 1523.24 118.444ZM1673.98 237.66C1681.51 231.088 1677.77 214.412 1678.37 205.441C1679.45 189.397 1676.23 181.402 1658.74 181.7C1628.61 181.222 1598.46 181.576 1568.32 181.503C1553.57 181.631 1519.58 180.534 1506.02 182.34C1498.49 188.912 1502.23 205.588 1501.63 214.559C1500.55 230.603 1503.77 238.598 1521.26 238.3C1551.39 238.778 1581.54 238.424 1611.68 238.497C1626.43 238.369 1660.42 239.466 1673.98 237.66Z" fill="white"/>
<path d="M143.235 118.444C158.372 118.312 179.868 114.549 181.073 134.769C181.881 148.323 181.646 161.427 181.603 174.98L181.43 250.571C181.415 259.958 179.371 291.319 187.64 296.168C192.743 299.16 222.273 299.401 228.225 298.161C254.604 292.664 221.142 243.879 252.832 239.135C305.707 235.317 302.186 239.702 301.706 289.843C301.806 294.193 306.799 298.638 310.711 298.121C323.552 296.423 354.011 305.413 357.145 287.703C359.209 276.039 358.6 261.847 358.552 250.356L358.331 176.101C358.302 162.773 353.309 119.91 371.422 119.205C383.124 118.75 406.973 115.998 416.635 122.493C424.057 133.466 421.624 185.323 421.619 201.629L421.556 325.5L421.692 385.223C421.723 424.069 418.497 421.767 380.281 421.696C341.49 421.624 369.481 384.252 353.879 365.905C347.496 358.399 326.435 362.485 317.307 361.662C284.778 362.122 306.626 316.408 294.892 303.728C288.761 300.417 261.756 301.175 253.988 301.407C228.567 302.166 250.664 341.631 237.17 356.001C228.404 365.336 209.464 360.334 196.696 361.512C170.104 363.248 188.139 402.915 177.398 416.459C171.291 424.161 131.811 423.585 123.688 417.344C119.777 414.337 118.503 405.892 118.491 401.066C118.354 344.878 118.416 288.683 118.457 232.493L118.503 166.741C118.487 155.335 115.575 132.994 123.165 123.889C127.885 118.228 136.334 118.636 143.235 118.444Z" fill="white"/>
<path d="M1883.24 118.444L1977.72 118.365C1994.23 118.362 2011.28 118.811 2027.27 119.182C2049.63 119.702 2042.86 175.337 2034.61 178.541C2012.49 187.138 1876.26 175.989 1864.41 184.202C1862.03 187.52 1861.65 191.01 1861.56 195.002C1861.35 204.255 1859.07 227.468 1865.58 233.926C1868.11 236.447 1872.13 237.654 1875.58 238.181C1884.09 239.482 1893.52 238.681 1902.12 238.607C1920.67 238.448 1939.34 237.867 1957.88 238.198C1964.42 238.314 1972.45 238.95 1977.22 244.036C1983.47 250.717 1982.01 269.55 1981.67 278.279C1981.45 283.922 1981.1 292.778 1976.63 296.834C1961.83 310.284 1878.71 293.039 1865.67 305.849C1861.76 309.7 1861.55 316.747 1861.47 321.865C1861.34 330.018 1859.12 349.812 1865.05 355.648C1869.7 360.213 1883.18 358.532 1889.5 358.444C1908.72 358.423 2026.55 355.287 2035.88 362.125C2039.21 364.559 2040.56 370.15 2041.17 373.958C2042.57 382.762 2043.05 408.747 2037.79 415.688C2035.07 419.274 2030.96 420.168 2026.74 420.777C2015.25 422.437 2003 421.631 1991.39 421.613L1933.45 421.49C1864.24 421.348 1856.26 434.775 1857.97 369.821C1858.54 348.024 1800.25 378.469 1799.19 345.213C1797.64 296.554 1798.34 248.99 1798.7 200.396C1798.73 168.864 1823.75 180.548 1845.9 178.632C1871.67 176.404 1849.63 137.823 1862.69 123.978C1868.28 118.054 1875.81 118.636 1883.24 118.444Z" fill="white"/>
<path d="M743.235 118.444L958.903 118.586C972.389 118.629 985.884 117.952 999.363 118.084C1005.41 118.143 1011.83 118.972 1016.23 123.554C1024.05 131.687 1021.86 148.546 1021.59 158.999C1021.44 164.888 1021.26 172.661 1016.55 176.958C1002.6 189.679 918.084 173.577 905.489 186.14C902.773 188.849 902.287 193.874 901.914 197.511C900.455 211.773 901.466 226.934 901.471 241.281L901.556 325.5C901.611 341.012 904.731 408.047 897.083 416.391C893.881 419.885 889.195 420.872 884.669 421.158C873.861 421.839 851.501 424.464 842.985 416.784C839.928 414.026 839.155 406.895 838.799 403.006C837.243 385.988 838.363 368.119 838.376 350.993L838.463 252.017C838.481 235.105 839.248 217.808 838.388 200.939C838.18 196.859 837.788 189.128 834.636 186.121C820.623 172.759 737.706 190.432 723.247 176.772C719.569 173.297 718.739 167.384 718.544 162.587C718.136 152.549 715.82 131.444 723.029 123.796C728.346 118.154 736.117 118.638 743.235 118.444Z" fill="white"/>
<path d="M1103.24 118.444C1147.84 117.916 1142.21 124.208 1140.91 164.084C1140.01 191.389 1182.41 170.076 1196.24 182.651C1208.2 193.528 1195.52 226.993 1205.06 236.143C1213.64 240.296 1237.46 237.858 1247.69 238.276C1269.01 239.148 1251 196.022 1262.67 183.735C1270.74 175.235 1295.16 179.254 1307.29 178.525C1329.66 177.18 1310.67 137.56 1322.41 123.88C1327.89 118.859 1338.34 118.07 1345.16 118.172C1369.35 119.275 1381.66 115.088 1381.68 142.621C1381.71 177.49 1382.81 183.535 1344.54 181.491C1316.05 179.97 1320.78 189.688 1321.8 213.412C1322.74 235.148 1318.69 241.03 1296.76 241.556C1255.2 241.03 1261.42 240.12 1261.47 282.25L1261.62 361.073C1261.65 374.179 1263.72 404.759 1257.58 416.035C1253.26 423.963 1222.35 421.529 1213.74 421.201C1198.97 420.638 1198.31 406.115 1198.29 394.592C1198.28 384.931 1198.3 375.132 1198.32 365.442L1198.55 293.994C1198.57 286.336 1199.43 250.363 1196.67 245.801C1190.55 235.662 1152.05 247.287 1143.47 237.082C1134.42 226.313 1139.21 206.346 1139.31 193.312C1138.81 171.325 1094.91 188.686 1083.71 177.07C1078.82 172.269 1078.33 165.17 1078.47 158.603C1078.97 133.862 1072.57 119.305 1103.24 118.444Z" fill="white"/>
<path d="M563.235 178.444C627.001 178.216 589.158 198.788 605.014 236.069C607.925 240.265 623.794 238.796 627.271 238.451C661.874 235.656 661.13 244.756 661.659 273.461C662.356 311.281 642.07 300.615 614.248 300.784C590.339 300.93 609.25 344.636 596.983 356.224C590.88 361.988 584.848 361.33 576.765 361.556C512.999 361.784 550.842 341.212 534.986 303.931C532.075 299.735 516.206 301.204 512.729 301.549C478.126 304.344 478.87 295.244 478.341 266.539C477.644 228.719 497.93 239.385 525.752 239.216C549.661 239.07 530.75 195.364 543.017 183.776C549.12 178.012 555.152 178.67 563.235 178.444ZM593.981 297.66C601.529 291.014 597.778 265.553 598.46 255.595C598.609 253.414 597.065 245.57 595.683 244.524C588.795 239.314 552.184 241.537 546.019 242.34C538.471 248.986 542.222 274.447 541.54 284.405C541.391 286.586 542.935 294.43 544.317 295.476C551.205 300.686 587.816 298.463 593.981 297.66Z" fill="white"/>
<path d="M2123.24 238.444C2130.85 238.418 2151.47 237.299 2156.01 242.338C2164.08 251.315 2163.97 286.675 2157.01 296.72C2153.73 301.449 2142.01 301.381 2136.76 301.556C2129.15 301.582 2108.53 302.701 2103.99 297.662C2095.92 288.685 2096.03 253.325 2102.99 243.28C2106.27 238.551 2117.99 238.619 2123.24 238.444Z" fill="white"/>
</svg>
