<svg xmlns="http://www.w3.org/2000/svg" viewBox="0 0 1480 360" width="1480" height="360">
      
    <defs>
      <filter id="gooey" color-interpolation-filters="sRGB">
        <feGaussianBlur in="SourceGraphic" stdDeviation="8" result="blur" />
        <feColorMatrix 
          in="blur" 
          mode="matrix" 
          values="
            1 0 0 0 0  
            0 1 0 0 0  
            0 0 1 0 0  
            0 0 0 20 -8
          " 
          result="gooey" 
        />
        <feComposite in="SourceGraphic" in2="gooey" operator="atop" />
      </filter>
    </defs>
      <g filter="url(#gooey)">
        <path d="M 360 240 L 360 200 L 320 200 L 320 160 L 360 160 L 360 200 L 400 200 L 400 160 L 440 160 L 440 200 L 400 200 L 400 240 Z M 360 160 L 360 120 L 400 120 L 400 160 Z M 1360 200 L 1360 160 L 1400 160 L 1400 200 Z M 1120 80 L 1120 160 L 1080 160 L 1080 120 L 960 120 L 960 80 Z M 1080 200 L 960 200 L 960 280 L 920 280 L 920 120 L 960 120 L 960 160 L 1080 160 Z M 240 280 L 240 240 L 200 240 L 200 200 L 160 200 L 160 160 L 200 160 L 200 200 L 240 200 L 240 80 L 280 80 L 280 280 Z M 160 240 L 120 240 L 120 280 L 80 280 L 80 80 L 120 80 L 120 200 L 160 200 Z M 800 160 L 800 120 L 840 120 L 840 80 L 880 80 L 880 120 L 840 120 L 840 160 Z M 1160 160 L 1160 120 L 1200 120 L 1200 80 L 1320 80 L 1320 120 L 1200 120 L 1200 160 L 1320 160 L 1320 200 L 1200 200 L 1200 240 L 1160 240 L 1160 200 L 1200 200 L 1200 160 Z M 640 120 L 560 120 L 560 280 L 520 280 L 520 120 L 440 120 L 440 80 L 640 80 Z M 760 160 L 800 160 L 800 280 L 760 280 Z M 680 120 L 680 80 L 720 80 L 720 120 L 760 120 L 760 160 L 720 160 L 720 120 Z M 1320 280 L 1200 280 L 1200 240 L 1320 240 Z" fill="#000000" fill-rule="nonzero"/>
      </g>
    </svg>