<svg width="450" height="96" viewBox="0 0 450 96" fill="none" xmlns="http://www.w3.org/2000/svg">
<path d="M19 45.5C19 50.4706 23.0294 54.5 28 54.5H28.25C33.0825 54.5 37 50.5825 37 45.75C37 40.9175 40.9175 37 45.75 37H50.25C55.0825 37 59 40.9175 59 45.75C59 50.5825 62.9175 54.5 67.75 54.5H68C72.9706 54.5 77 50.4706 77 45.5V10C77 4.75329 81.2533 0.5 86.5 0.5C91.7467 0.5 96 4.7533 96 10V86C96 91.2467 91.7467 95.5 86.5 95.5C81.2533 95.5 77 91.2467 77 86V85.5C77 80.5294 72.9706 76.5 68 76.5H67.75C62.9175 76.5 59 72.5825 59 67.75C59 62.9175 55.0825 59 50.25 59H45.75C40.9175 59 37 62.9175 37 67.75C37 72.5825 33.0825 76.5 28.25 76.5H28C23.0294 76.5 19 80.5294 19 85.5V86C19 91.2467 14.7467 95.5 9.5 95.5C4.2533 95.5 0 91.2467 0 86V10C0 4.7533 4.2533 0.5 9.5 0.5C14.7467 0.5 19 4.7533 19 10V45.5Z" fill="white"/>
<path d="M203.75 41.5C198.918 41.5 195 45.4175 195 50.25C195 55.0825 191.082 59 186.25 59L145.75 59C140.918 59 137 62.9175 137 67.75C137 72.5825 140.918 76.5 145.75 76.5L204.5 76.5C209.747 76.5 214 80.7533 214 86C214 91.2467 209.747 95.5 204.5 95.5L144.986 95.5C140.016 95.5 135.986 91.4671 135.986 86.4966C135.986 81.5298 131.96 77.5 126.993 77.5C122.026 77.5 118 73.4736 118 68.5068L118 41.2964C118 41.2675 118.023 41.2441 118.052 41.2441C118.081 41.2441 118.104 41.2207 118.104 41.1919L118.104 28.6636C118.104 23.3848 122.384 19.1055 127.663 19.1055L127.918 19.1055C133.056 19.1055 137.221 14.9405 137.221 9.80273C137.221 4.66497 141.386 0.499997 146.523 0.499997L204 0.5C209.523 0.5 214 4.97715 214 10.5L214 32C214 37.2467 209.747 41.5 204.5 41.5L203.75 41.5ZM151.124 19.5C145.601 19.5 141.124 23.9771 141.124 29.5L141.124 31.2441C141.124 36.767 145.601 41.2441 151.124 41.2441L185 41.2441C190.523 41.2441 195 36.767 195 31.2441L195 29.5C195 23.9772 190.523 19.5 185 19.5L151.124 19.5Z" fill="white"/>
<path d="M320.895 77C315.648 77 311.395 81.2533 311.395 86.5C311.395 91.7467 307.141 96 301.895 96L245.5 96C240.253 96 236 91.7467 236 86.5L236 77.1924C236 77.0861 236.086 77 236.192 77C236.299 77 236.385 76.9139 236.385 76.8076L236.385 68.0068C236.385 63.04 240.411 59.0137 245.378 59.0137C250.345 59.0137 254.371 63.04 254.371 68.0068C254.371 72.9736 258.397 77 263.364 77L301 77C305.971 77 310 72.9706 310 68C310 63.0294 305.971 59 301 59L284.875 59C279.973 59 276 55.0265 276 50.125C276 45.2235 272.027 41.25 267.125 41.25L265 41.25C259.477 41.25 255 36.7728 255 31.25L255 28.5C255 23.2533 250.747 19 245.5 19C240.253 19 236 14.7467 236 9.5C236 4.25329 240.253 -4.01038e-06 245.5 -3.78104e-06L303.539 -1.24407e-06C308.786 -1.01473e-06 313.039 4.25329 313.039 9.5C313.039 14.7467 308.786 19 303.539 19L286.5 19C281.529 19 277.5 23.0294 277.5 28C277.5 32.9706 281.529 37 286.5 37L301.299 37C306.269 37 310.299 41.0294 310.299 46C310.299 50.9706 314.328 55 319.299 55L322 55C327.523 55 332 59.4772 332 65L332 67C332 72.5228 327.523 77 322 77L320.895 77Z" fill="white"/>
<path d="M438.895 77C433.648 77 429.395 81.2533 429.395 86.5C429.395 91.7467 425.141 96 419.895 96L363.5 96C358.253 96 354 91.7467 354 86.5L354 77.1924C354 77.0861 354.086 77 354.192 77C354.299 77 354.385 76.9139 354.385 76.8076L354.385 68.0068C354.385 63.04 358.411 59.0137 363.378 59.0137C368.345 59.0137 372.371 63.04 372.371 68.0068C372.371 72.9736 376.397 77 381.364 77L419 77C423.971 77 428 72.9706 428 68C428 63.0294 423.971 59 419 59L402.875 59C397.973 59 394 55.0265 394 50.125C394 45.2235 390.027 41.25 385.125 41.25L383 41.25C377.477 41.25 373 36.7728 373 31.25L373 28.5C373 23.2533 368.747 19 363.5 19C358.253 19 354 14.7467 354 9.5C354 4.25329 358.253 -4.01038e-06 363.5 -3.78104e-06L421.539 -1.24407e-06C426.786 -1.01473e-06 431.039 4.25329 431.039 9.5C431.039 14.7467 426.786 19 421.539 19L404.5 19C399.529 19 395.5 23.0294 395.5 28C395.5 32.9706 399.529 37 404.5 37L419.299 37C424.269 37 428.299 41.0294 428.299 46C428.299 50.9706 432.328 55 437.299 55L440 55C445.523 55 450 59.4772 450 65L450 67C450 72.5228 445.523 77 440 77L438.895 77Z" fill="white"/>
</svg>
