<svg width="450" height="96" viewBox="0 0 450 96" fill="none" xmlns="http://www.w3.org/2000/svg">
<path d="M19 45.5C19 50.4706 23.0294 54.5 28 54.5H28.25C33.0825 54.5 37 50.5825 37 45.75C37 40.9175 40.9175 37 45.75 37H50.25C55.0825 37 59 40.9175 59 45.75C59 50.5825 62.9175 54.5 67.75 54.5H68C72.9706 54.5 77 50.4706 77 45.5V10C77 4.75329 81.2533 0.5 86.5 0.5C91.7467 0.5 96 4.75329 96 10V86C96 91.2467 91.7467 95.5 86.5 95.5C81.2533 95.5 77 91.2467 77 86V85.5C77 80.5294 72.9706 76.5 68 76.5H67.75C62.9175 76.5 59 72.5825 59 67.75C59 62.9175 55.0825 59 50.25 59H45.75C40.9175 59 37 62.9175 37 67.75C37 72.5825 33.0825 76.5 28.25 76.5H28C23.0294 76.5 19 80.5294 19 85.5V86C19 91.2467 14.7467 95.5 9.5 95.5C4.25329 95.5 0 91.2467 0 86V10C0 4.7533 4.25329 0.5 9.5 0.5C14.7467 0.5 19 4.75329 19 10V45.5Z" fill="white"/>
<path d="M203.75 41.5C198.918 41.5 195 45.4175 195 50.25C195 55.0825 191.082 59 186.25 59L145.75 59C140.918 59 137 62.9175 137 67.75C137 72.5825 140.918 76.5 145.75 76.5L204.5 76.5C209.747 76.5 214 80.7533 214 86C214 91.2467 209.747 95.5 204.5 95.5L145.128 95.5C130.146 95.5 118 83.3544 118 68.3721L118 50.7441C118 45.4974 122.253 41.2441 127.5 41.2441C132.747 41.2441 137 36.9908 137 31.7441L137 29C137 23.7533 132.747 19.5 127.5 19.5C122.253 19.5 118 15.2467 118 10C118 4.75329 122.253 0.499996 127.5 0.499996L193.5 0.499999C204.822 0.5 214 9.67816 214 21L214 32C214 37.2467 209.747 41.5 204.5 41.5L203.75 41.5ZM165.872 19.5C159.868 19.5 155 24.3676 155 30.3721C155 36.3765 159.868 41.2441 165.872 41.2441L184.128 41.2441C190.132 41.2441 195 36.3765 195 30.3721C195 24.3676 190.132 19.5 184.128 19.5L165.872 19.5Z" fill="white"/>
<path d="M319 31C315.686 31 313 28.3137 313 25C313 21.6863 310.314 19 307 19L286.5 19C281.529 19 277.5 23.0294 277.5 28C277.5 32.9706 281.529 37 286.5 37L304.75 37C319.8 37 332 49.2002 332 64.25L332 66.5C332 82.7924 318.792 96 302.5 96L245.5 96C240.253 96 236 91.7467 236 86.5C236 81.2533 240.253 77 245.5 77L246.021 77C250.987 77 255.014 72.9736 255.014 68.0068C255.014 63.04 259.04 59.0137 264.007 59.0137C268.974 59.0137 273 63.04 273 68.0068C273 72.9736 277.026 77 281.993 77L301 77C305.971 77 310 72.9706 310 68C310 63.0294 305.971 59 301 59L284.875 59C279.973 59 276 55.0265 276 50.125C276 45.2235 272.027 41.25 267.125 41.25L265.5 41.25C259.701 41.25 255 36.549 255 30.75L255 28.5C255 23.2533 250.747 19 245.5 19C240.253 19 236 14.7467 236 9.5C236 4.25329 240.253 -4.01038e-06 245.5 -3.78104e-06L316.5 -6.77527e-07C325.06 -3.03339e-07 332 6.93959 332 15.5L332 21.5C332 26.7467 327.747 31 322.5 31L319 31Z" fill="white"/>
<path d="M437 31C433.686 31 431 28.3137 431 25C431 21.6863 428.314 19 425 19L404.5 19C399.529 19 395.5 23.0294 395.5 28C395.5 32.9706 399.529 37 404.5 37L422.75 37C437.8 37 450 49.2002 450 64.25L450 66.5C450 82.7924 436.792 96 420.5 96L363.5 96C358.253 96 354 91.7467 354 86.5C354 81.2533 358.253 77 363.5 77L364.021 77C368.987 77 373.014 72.9736 373.014 68.0068C373.014 63.04 377.04 59.0137 382.007 59.0137C386.974 59.0137 391 63.04 391 68.0068C391 72.9736 395.026 77 399.993 77L419 77C423.971 77 428 72.9706 428 68C428 63.0294 423.971 59 419 59L402.875 59C397.973 59 394 55.0265 394 50.125C394 45.2235 390.027 41.25 385.125 41.25L383.5 41.25C377.701 41.25 373 36.549 373 30.75L373 28.5C373 23.2533 368.747 19 363.5 19C358.253 19 354 14.7467 354 9.5C354 4.25329 358.253 -4.01038e-06 363.5 -3.78104e-06L434.5 -6.77526e-07C443.06 -3.03339e-07 450 6.93959 450 15.5L450 21.5C450 26.7467 445.747 31 440.5 31L437 31Z" fill="white"/>
</svg>
