<svg width="126" height="128" viewBox="0 0 126 128" fill="none" xmlns="http://www.w3.org/2000/svg">
<path d="M116.229 127.206C119.074 126.47 122.387 124.063 123.993 121.489C125.934 118.447 125.834 120.687 125.834 77.059C125.834 33.4313 125.934 8.92614 123.993 5.8839C122.856 4.07861 120.312 1.87215 118.204 0.902644C116.564 0.133726 115.861 8.71461e-07 113.117 1.11124e-06C110.373 1.35101e-06 109.67 0.133726 108.03 0.902645C105.922 1.87215 103.378 4.07861 102.24 5.8839C100.433 8.72556 100.366 36.0389 100.4 50.314C100.433 64.5558 100.199 67.4643 98.8938 70.0051C97.7894 72.1781 95.4468 74.4848 93.1042 75.6215C91.4309 76.4573 90.8285 76.5576 88.0173 76.5576C85.2396 76.5576 84.6038 76.4573 82.9639 75.6549C81.9599 75.1535 80.387 74.0168 79.5169 73.1476C77.1408 70.8408 76.3711 69.0021 75.8022 64.5223C75.2332 59.8754 74.2627 57.7023 71.7193 55.2953C70.7488 54.3927 69.0755 53.2226 68.038 52.7211C66.3647 51.9522 65.6619 51.8184 62.9177 51.8184C60.1735 51.8184 59.4707 51.9522 57.7974 52.7211C56.7599 53.2226 55.0866 54.3927 54.1161 55.2953C51.5727 57.7023 50.6022 59.8754 50.0332 64.5223C49.4643 68.9687 48.6946 70.8408 46.3519 73.1476C45.5153 73.9834 43.9759 75.0866 42.9049 75.6215C41.2316 76.4573 40.6292 76.5576 37.8181 76.5576C35.0404 76.5576 34.4045 76.4573 32.7647 75.6549C30.489 74.5183 28.0125 72.1112 26.9081 70.0051C25.6364 67.4643 25.4021 64.5223 25.4356 50.314C25.4691 36.0389 25.4021 8.72557 23.595 5.88391C22.4571 4.07862 19.9137 1.87216 17.8053 0.902653C16.1655 0.133735 15.4627 9.64378e-06 12.7185 9.88356e-06C9.97423 1.01233e-05 9.27144 0.133735 7.6316 0.902654C5.52323 1.87216 2.97981 4.07862 1.84196 5.88391C-0.09908 8.92616 0.00132273 33.4313 0.00132654 77.0591C0.00133036 120.687 -0.0990704 118.447 1.84197 121.489C2.97982 123.294 5.52325 125.501 7.63161 126.47C9.27146 127.239 9.97424 127.373 12.7185 127.373C15.4627 127.373 16.1655 127.239 17.8388 126.47C18.8762 125.969 20.5495 124.799 21.5201 123.896C24.0635 121.489 25.034 119.316 25.6029 114.669C26.1719 110.223 26.9416 108.351 29.2842 106.044C31.5934 103.737 33.6683 102.868 37.7846 102.467C42.0014 102.066 44.1097 101.196 46.6197 98.8228C49.1631 96.4157 50.1336 94.2427 50.7026 89.5958C51.2715 85.1494 52.0412 83.2773 54.3838 80.9705C55.2205 80.1347 56.7599 79.0315 57.8308 78.4966C59.5376 77.6608 60.1065 77.5605 62.9177 77.5605C65.6954 77.5939 66.3313 77.6942 67.9711 78.4966C68.9751 78.9981 70.548 80.1013 71.4181 80.9705C73.7942 83.2773 74.5639 85.116 75.1329 89.5958C75.7018 94.2427 76.6723 96.4157 79.2157 98.8228C81.7257 101.196 83.8341 102.066 87.9839 102.467C92.0667 102.835 94.2086 103.737 96.5177 106.044C98.8938 108.351 99.6635 110.189 100.232 114.669C100.801 119.316 101.772 121.489 104.315 123.896C106.758 126.203 109.134 127.239 112.381 127.407C113.786 127.473 115.527 127.373 116.229 127.206Z" fill="white"/>
</svg>
